<?xml version="1.0" standalone="no"?>
<!DOCTYPE svg PUBLIC "-//W3C//DTD SVG 20010904//EN"
 "http://www.w3.org/TR/2001/REC-SVG-20010904/DTD/svg10.dtd">
<svg version="1.0" xmlns="http://www.w3.org/2000/svg"
 width="896.000000pt" height="896.000000pt" viewBox="0 0 896.000000 896.000000"
 preserveAspectRatio="xMidYMid meet">
<metadata>
Created by potrace 1.14, written by Peter Selinger 2001-2017
</metadata>
<g transform="translate(0.000000,896.000000) scale(0.100000,-0.100000)"
fill="#000000" stroke="none">
<path d="M3438 8775 c-2 -1 -41 -6 -88 -9 -114 -9 -150 -14 -247 -31 -70 -13
-286 -15 -1540 -15 l-1459 0 2 -2892 c1 -1591 4 -2906 7 -2923 3 -16 8 -61 11
-100 4 -38 12 -97 17 -130 6 -33 13 -75 15 -94 3 -19 6 -37 8 -40 3 -4 7 -25
11 -49 11 -73 64 -272 107 -397 137 -405 340 -736 623 -1021 144 -145 349
-312 454 -369 10 -6 25 -16 32 -22 31 -25 247 -140 359 -191 162 -73 473 -178
585 -198 17 -3 59 -11 95 -19 79 -17 183 -36 230 -41 19 -2 46 -6 60 -9 38 -7
182 -21 355 -32 123 -8 1528 -8 4079 1 1282 4 1702 8 1712 17 13 10 14 486 11
3433 -2 1882 -6 3446 -10 3476 -49 393 -126 632 -285 888 -214 344 -569 593
-992 694 -115 27 -121 28 -155 34 -16 3 -41 7 -55 10 -14 3 -38 6 -55 9 -16 2
-59 7 -95 11 -82 11 -459 11 -565 2 -262 -25 -439 -63 -630 -139 -224 -88
-402 -206 -586 -389 -114 -114 -209 -219 -217 -241 -7 -18 -21 -8 -63 49 -119
158 -305 330 -471 436 -82 52 -260 139 -348 171 -100 35 -278 80 -376 95 -43
6 -90 13 -104 16 -28 5 -426 14 -432 9z m493 -59 c198 -31 373 -80 517 -147
46 -22 86 -39 88 -39 12 0 196 -118 262 -168 100 -75 263 -240 347 -350 l68
-90 21 22 c12 12 53 60 93 107 82 98 212 227 293 292 236 190 554 323 868 363
20 2 48 7 62 9 140 27 604 27 760 1 14 -3 41 -7 60 -10 652 -99 1101 -444
1328 -1021 32 -80 78 -239 88 -305 3 -19 9 -53 14 -75 5 -22 12 -71 15 -110 4
-38 11 -101 15 -140 4 -38 9 -1574 9 -3413 l1 -3344 -41 49 c-23 26 -51 59
-63 73 -11 14 -48 57 -81 95 -33 38 -71 83 -85 99 -14 17 -41 48 -60 70 -20
23 -74 86 -120 141 -47 55 -94 111 -106 125 -12 14 -136 158 -274 320 -139
162 -264 309 -279 325 -14 17 -49 57 -76 90 -28 33 -52 62 -55 65 -3 3 -30 34
-59 70 -30 36 -60 70 -65 75 -6 6 -47 53 -91 105 -44 52 -82 97 -85 100 -4 3
-42 48 -85 100 -44 52 -85 100 -91 106 -6 7 -82 96 -170 198 l-159 186 -1
1998 c0 1098 -4 2022 -8 2052 -13 104 -37 162 -87 212 -37 37 -56 48 -93 53
-95 15 -195 -12 -262 -68 -50 -42 -79 -118 -100 -262 -3 -22 -7 -917 -8 -1990
l-2 -1950 -1017 -3 -1017 -2 -1 1962 c0 1080 -3 1983 -5 2008 -15 162 -58 245
-149 292 -33 17 -51 20 -116 15 -110 -8 -185 -52 -225 -130 -28 -54 -54 -201
-60 -337 -3 -74 -6 -958 -7 -1965 -2 -1197 -6 -1829 -12 -1829 -6 1 -28 4 -50
8 -326 45 -487 176 -545 443 -10 48 -22 111 -26 138 -3 28 -9 59 -12 70 -7 25
-15 5265 -8 5265 2 0 36 7 73 14 38 8 91 18 119 22 27 3 58 8 69 10 11 2 58 7
105 10 47 4 87 8 88 9 11 10 413 -6 493 -19z m110 -1768 c59 -33 93 -98 107
-203 4 -27 7 -943 7 -2035 l0 -1985 -187 1 c-186 2 -275 8 -286 19 -8 8 -4
3784 4 3860 3 33 8 69 10 80 2 11 7 36 10 55 27 160 98 226 248 229 33 1 61
-6 87 -21z m2587 8 c33 -17 65 -51 85 -91 41 -81 41 -105 42 -2165 l0 -1975
-240 0 -240 0 1 1930 c0 1062 4 1961 8 1998 12 129 41 210 90 256 55 51 196
77 254 47z"/>
</g>
</svg>
